<svg width="147" height="136" viewBox="0 0 147 136" fill="none" xmlns="http://www.w3.org/2000/svg">
<g filter="url(#filter0_d_0_1)">
<path d="M27.7148 127.543V69.6816L31.8037 67.7529H46.4233C50.3065 67.7529 53.881 68.4344 57.147 69.7974C62.9845 72.2147 65.9033 75.7764 65.9033 80.4824V93.5977C65.9033 98.3037 62.9845 101.865 57.147 104.283C53.881 105.646 50.3065 106.327 46.4233 106.327H35.4297V124.071L28.1006 127.543H27.7148ZM35.4297 99.3838H46.4233C48.995 99.3838 51.3608 98.9595 53.521 98.1108C56.6326 96.8765 58.1885 95.3721 58.1885 93.5977V80.4824C58.1885 78.6823 56.6326 77.1779 53.521 75.9692C51.3608 75.1206 48.995 74.6963 46.4233 74.6963H35.4297V99.3838ZM79.9829 75.0435C79.0828 74.1177 78.6328 73.0119 78.6328 71.7261C78.6328 70.4146 79.0828 69.2959 79.9829 68.3701C80.883 67.4443 81.9759 66.9814 83.2617 66.9814C84.5475 66.9814 85.6405 67.4443 86.5405 68.3701C87.4406 69.2959 87.8906 70.4146 87.8906 71.7261C87.8906 73.0119 87.4406 74.1177 86.5405 75.0435C85.6405 75.9692 84.5475 76.4321 83.2617 76.4321C81.9759 76.4321 80.883 75.9692 79.9829 75.0435ZM79.4043 127.543V85.4971L86.7334 82.0254H87.1191V124.071L79.79 127.543H79.4043ZM105.712 127.543V90.5889H95.7983V90.2031L98.9229 83.5684H105.712V69.6816L113.041 66.21H113.427V83.5684H123.34V83.9541L120.216 90.5889H113.427V124.071L106.098 127.543H105.712Z" fill="#FFF278"/>
<path d="M27.7148 127.543H25.7148V129.543H27.7148V127.543ZM27.7148 69.6816L26.8616 67.8728L25.7148 68.4137V69.6816H27.7148ZM31.8037 67.7529V65.7529H31.3557L30.9505 65.9441L31.8037 67.7529ZM57.147 69.7974L56.3767 71.6431L56.3818 71.6452L57.147 69.7974ZM57.147 104.283L56.3818 102.435L56.3767 102.437L57.147 104.283ZM35.4297 106.327V104.327H33.4297V106.327H35.4297ZM35.4297 124.071L36.2859 125.879L37.4297 125.337V124.071H35.4297ZM28.1006 127.543V129.543H28.5503L28.9568 129.35L28.1006 127.543ZM35.4297 99.3838H33.4297V101.384H35.4297V99.3838ZM53.521 98.1108L54.2523 99.9724L54.2585 99.9699L53.521 98.1108ZM53.521 75.9692L52.7897 77.8308L52.7968 77.8335L53.521 75.9692ZM35.4297 74.6963V72.6963H33.4297V74.6963H35.4297ZM29.7148 127.543V69.6816H25.7148V127.543H29.7148ZM28.5681 71.4905L32.6569 69.5618L30.9505 65.9441L26.8616 67.8728L28.5681 71.4905ZM31.8037 69.7529H46.4233V65.7529H31.8037V69.7529ZM46.4233 69.7529C50.0679 69.7529 53.3776 70.3915 56.3767 71.6431L57.9172 67.9516C54.3845 66.4773 50.5451 65.7529 46.4233 65.7529V69.7529ZM56.3818 71.6452C59.1039 72.7724 60.9799 74.1004 62.1673 75.5493C63.3268 76.9642 63.9033 78.5806 63.9033 80.4824H67.9033C67.9033 77.6782 67.0205 75.1607 65.2612 73.0139C63.5298 70.9012 61.0276 69.2396 57.9122 67.9495L56.3818 71.6452ZM63.9033 80.4824V93.5977H67.9033V80.4824H63.9033ZM63.9033 93.5977C63.9033 95.4995 63.3268 97.1159 62.1673 98.5308C60.9799 99.9797 59.1039 101.308 56.3818 102.435L57.9122 106.131C61.0276 104.84 63.5298 103.179 65.2612 101.066C67.0205 98.9193 67.9033 96.4019 67.9033 93.5977H63.9033ZM56.3767 102.437C53.3776 103.689 50.0679 104.327 46.4233 104.327V108.327C50.5451 108.327 54.3845 107.603 57.9172 106.128L56.3767 102.437ZM46.4233 104.327H35.4297V108.327H46.4233V104.327ZM33.4297 106.327V124.071H37.4297V106.327H33.4297ZM34.5735 122.264L27.2444 125.735L28.9568 129.35L36.2859 125.879L34.5735 122.264ZM28.1006 125.543H27.7148V129.543H28.1006V125.543ZM35.4297 101.384H46.4233V97.3838H35.4297V101.384ZM46.4233 101.384C49.2182 101.384 51.8353 100.922 54.2523 99.9723L52.7897 96.2493C50.8864 96.9971 48.7717 97.3838 46.4233 97.3838V101.384ZM54.2585 99.9699C57.4275 98.7128 60.1885 96.7501 60.1885 93.5977H56.1885C56.1885 93.994 55.8378 95.0402 52.7835 96.2518L54.2585 99.9699ZM60.1885 93.5977V80.4824H56.1885V93.5977H60.1885ZM60.1885 80.4824C60.1885 77.3048 57.4319 75.3428 54.2451 74.1049L52.7968 77.8335C55.8334 79.013 56.1885 80.0598 56.1885 80.4824H60.1885ZM54.2523 74.1077C51.8353 73.1582 49.2182 72.6963 46.4233 72.6963V76.6963C48.7717 76.6963 50.8864 77.083 52.7897 77.8307L54.2523 74.1077ZM46.4233 72.6963H35.4297V76.6963H46.4233V72.6963ZM33.4297 74.6963V99.3838H37.4297V74.6963H33.4297ZM79.9829 75.0435L78.5489 76.4376L79.9829 75.0435ZM79.9829 68.3701L78.5489 66.976L79.9829 68.3701ZM79.4043 127.543H77.4043V129.543H79.4043V127.543ZM79.4043 85.4971L78.5481 83.6896L77.4043 84.2314V85.4971H79.4043ZM86.7334 82.0254V80.0254H86.2837L85.8772 80.2179L86.7334 82.0254ZM87.1191 82.0254H89.1191V80.0254H87.1191V82.0254ZM87.1191 124.071L87.9753 125.879L89.1191 125.337V124.071H87.1191ZM79.79 127.543V129.543H80.2398L80.6462 129.35L79.79 127.543ZM81.4169 73.6493C80.8781 73.0951 80.6328 72.4888 80.6328 71.7261H76.6328C76.6328 73.535 77.2876 75.1403 78.5489 76.4376L81.4169 73.6493ZM80.6328 71.7261C80.6328 70.9261 80.8861 70.3102 81.4169 69.7643L78.5489 66.976C77.2796 68.2816 76.6328 69.903 76.6328 71.7261H80.6328ZM81.4169 69.7643C81.9422 69.224 82.5187 68.9814 83.2617 68.9814V64.9814C81.4332 64.9814 79.8238 65.6647 78.5489 66.976L81.4169 69.7643ZM83.2617 68.9814C84.0048 68.9814 84.5812 69.224 85.1065 69.7643L87.9745 66.976C86.6997 65.6647 85.0903 64.9814 83.2617 64.9814V68.9814ZM85.1065 69.7643C85.6373 70.3102 85.8906 70.9261 85.8906 71.7261H89.8906C89.8906 69.903 89.2439 68.2816 87.9745 66.976L85.1065 69.7643ZM85.8906 71.7261C85.8906 72.4888 85.6454 73.0951 85.1065 73.6493L87.9745 76.4376C89.2358 75.1403 89.8906 73.535 89.8906 71.7261H85.8906ZM85.1065 73.6493C84.5812 74.1896 84.0048 74.4321 83.2617 74.4321V78.4321C85.0903 78.4321 86.6997 77.7489 87.9745 76.4376L85.1065 73.6493ZM83.2617 74.4321C82.5187 74.4321 81.9422 74.1896 81.4169 73.6493L78.5489 76.4376C79.8238 77.7489 81.4332 78.4321 83.2617 78.4321V74.4321ZM81.4043 127.543V85.4971H77.4043V127.543H81.4043ZM80.2605 87.3045L87.5896 83.8329L85.8772 80.2179L78.5481 83.6896L80.2605 87.3045ZM86.7334 84.0254H87.1191V80.0254H86.7334V84.0254ZM85.1191 82.0254V124.071H89.1191V82.0254H85.1191ZM86.263 122.264L78.9339 125.735L80.6462 129.35L87.9753 125.879L86.263 122.264ZM79.79 125.543H79.4043V129.543H79.79V125.543ZM105.712 127.543H103.712V129.543H105.712V127.543ZM105.712 90.5889H107.712V88.5889H105.712V90.5889ZM95.7983 90.5889H93.7983V92.5889H95.7983V90.5889ZM95.7983 90.2031L93.9889 89.351L93.7983 89.7558V90.2031H95.7983ZM98.9229 83.5684V81.5684H97.654L97.1135 82.7163L98.9229 83.5684ZM105.712 83.5684V85.5684H107.712V83.5684H105.712ZM105.712 69.6816L104.856 67.8742L103.712 68.416V69.6816H105.712ZM113.041 66.21V64.21H112.591L112.185 64.4025L113.041 66.21ZM113.427 66.21H115.427V64.21H113.427V66.21ZM113.427 83.5684H111.427V85.5684H113.427V83.5684ZM123.34 83.5684H125.34V81.5684H123.34V83.5684ZM123.34 83.9541L125.15 84.8062L125.34 84.4015V83.9541H123.34ZM120.216 90.5889V92.5889H121.485L122.025 91.441L120.216 90.5889ZM113.427 90.5889V88.5889H111.427V90.5889H113.427ZM113.427 124.071L114.283 125.879L115.427 125.337V124.071H113.427ZM106.098 127.543V129.543H106.547L106.954 129.35L106.098 127.543ZM107.712 127.543V90.5889H103.712V127.543H107.712ZM105.712 88.5889H95.7983V92.5889H105.712V88.5889ZM97.7983 90.5889V90.2031H93.7983V90.5889H97.7983ZM97.6077 91.0552L100.732 84.4205L97.1135 82.7163L93.9889 89.351L97.6077 91.0552ZM98.9229 85.5684H105.712V81.5684H98.9229V85.5684ZM107.712 83.5684V69.6816H103.712V83.5684H107.712ZM106.568 71.4891L113.897 68.0174L112.185 64.4025L104.856 67.8742L106.568 71.4891ZM113.041 68.21H113.427V64.21H113.041V68.21ZM111.427 66.21V83.5684H115.427V66.21H111.427ZM113.427 85.5684H123.34V81.5684H113.427V85.5684ZM121.34 83.5684V83.9541H125.34V83.5684H121.34ZM121.531 83.102L118.406 89.7368L122.025 91.441L125.15 84.8062L121.531 83.102ZM120.216 88.5889H113.427V92.5889H120.216V88.5889ZM111.427 90.5889V124.071H115.427V90.5889H111.427ZM112.571 122.264L105.241 125.735L106.954 129.35L114.283 125.879L112.571 122.264ZM106.098 125.543H105.712V129.543H106.098V125.543Z" fill="black"/>
</g>
<path d="M0.519531 4.10742L7.66309 0.723633H8.03906V47.3447C8.03906 49.0742 9.5555 50.5405 12.5884 51.7437C14.6938 52.5708 16.9998 52.9844 19.5063 52.9844C22.0129 52.9844 24.3188 52.5708 26.4243 51.7437C29.4572 50.5405 30.9736 49.0742 30.9736 47.3447V4.10742L38.1172 0.723633H38.4932V47.3447C38.4932 49.0742 40.0096 50.5405 43.0425 51.7437C45.1479 52.5708 47.4539 52.9844 49.9604 52.9844C52.467 52.9844 54.7729 52.5708 56.8784 51.7437C59.9113 50.5405 61.4277 49.0742 61.4277 47.3447V4.10742L68.5713 0.723633H68.9473V47.3447C68.9473 51.9316 66.1024 55.4032 60.4126 57.7593C57.2293 59.0877 53.7453 59.752 49.9604 59.752C46.1506 59.752 42.6665 59.0877 39.5083 57.7593C37.6034 56.9572 36.0117 56.0423 34.7334 55.0146C33.4551 56.0423 31.8634 56.9572 29.9585 57.7593C26.8003 59.0877 23.3162 59.752 19.5063 59.752C15.7215 59.752 12.2375 59.0877 9.0542 57.7593C3.36442 55.4032 0.519531 51.9316 0.519531 47.3447V4.10742ZM113.312 42.3442V50.5405C113.312 53.8491 110.969 56.4308 106.282 58.2856C103.75 59.2632 100.893 59.752 97.7095 59.752C94.5262 59.752 91.6688 59.2632 89.1372 58.2856C84.45 56.4308 82.1064 53.8491 82.1064 50.5405V26.1021C82.1064 22.7935 84.45 20.2118 89.1372 18.3569C91.6688 17.3794 94.5262 16.8906 97.7095 16.8906C100.893 16.8906 103.75 17.3794 106.282 18.3569C110.969 20.2118 113.312 22.7935 113.312 26.1021V30.9146L89.626 49.2246C89.626 50.4779 90.403 51.4178 91.957 52.0444C93.5361 52.6711 95.4536 52.9844 97.7095 52.9844C99.9653 52.9844 101.87 52.6711 103.424 52.0444C105.003 51.4178 105.793 50.4779 105.793 49.2246V45.728L112.937 42.3442H113.312ZM89.626 41.2915L105.793 28.2827V27.418C105.793 26.1647 105.003 25.2248 103.424 24.5981C101.87 23.9715 99.9653 23.6582 97.7095 23.6582C95.4536 23.6582 93.5361 23.9715 91.957 24.5981C90.403 25.2248 89.626 26.1647 89.626 27.418V41.2915ZM129.555 60.5039V24.4854H119.892V24.1094L122.938 17.6426H129.555V4.10742L136.698 0.723633H137.074V17.6426H146.737V18.0186L143.691 24.4854H137.074V57.1201L129.931 60.5039H129.555Z" fill="#80F2EB"/>
<path d="M0.519531 4.10742L-0.336641 2.29995L-1.48047 2.84176V4.10742H0.519531ZM7.66309 0.723633V-1.27637H7.21335L6.80691 -1.08384L7.66309 0.723633ZM8.03906 0.723633H10.0391V-1.27637H8.03906V0.723633ZM12.5884 51.7437L11.8509 53.6027L11.8571 53.6052L12.5884 51.7437ZM26.4243 51.7437L27.1556 53.6052L27.1618 53.6027L26.4243 51.7437ZM30.9736 4.10742L30.1175 2.29995L28.9736 2.84176V4.10742H30.9736ZM38.1172 0.723633V-1.27637H37.6675L37.261 -1.08384L38.1172 0.723633ZM38.4932 0.723633H40.4932V-1.27637H38.4932V0.723633ZM43.0425 51.7437L42.305 53.6027L42.3112 53.6052L43.0425 51.7437ZM56.8784 51.7437L57.6097 53.6052L57.6159 53.6027L56.8784 51.7437ZM61.4277 4.10742L60.5716 2.29995L59.4277 2.84176V4.10742H61.4277ZM68.5713 0.723633V-1.27637H68.1216L67.7151 -1.08384L68.5713 0.723633ZM68.9473 0.723633H70.9473V-1.27637H68.9473V0.723633ZM60.4126 57.7593L59.6474 55.9114L59.6423 55.9136L60.4126 57.7593ZM39.5083 57.7593L38.7322 59.6025L38.7328 59.6028L39.5083 57.7593ZM34.7334 55.0146L35.9865 53.4559L34.7334 52.4485L33.4803 53.4559L34.7334 55.0146ZM29.9585 57.7593L30.734 59.6028L30.7346 59.6025L29.9585 57.7593ZM9.0542 57.7593L9.82446 55.9135L9.81938 55.9114L9.0542 57.7593ZM1.3757 5.9149L8.51926 2.53111L6.80691 -1.08384L-0.336641 2.29995L1.3757 5.9149ZM7.66309 2.72363H8.03906V-1.27637H7.66309V2.72363ZM6.03906 0.723633V47.3447H10.0391V0.723633H6.03906ZM6.03906 47.3447C6.03906 50.4523 8.76066 52.3768 11.8509 53.6027L13.3259 49.8846C10.3503 48.7042 10.0391 47.6961 10.0391 47.3447H6.03906ZM11.8571 53.6052C14.2194 54.5332 16.7766 54.9844 19.5063 54.9844V50.9844C17.2231 50.9844 15.1683 50.6084 13.3197 49.8821L11.8571 53.6052ZM19.5063 54.9844C22.2361 54.9844 24.7933 54.5332 27.1556 53.6052L25.693 49.8821C23.8444 50.6084 21.7896 50.9844 19.5063 50.9844V54.9844ZM27.1618 53.6027C30.252 52.3768 32.9736 50.4523 32.9736 47.3447H28.9736C28.9736 47.6961 28.6624 48.7042 25.6868 49.8846L27.1618 53.6027ZM32.9736 47.3447V4.10742H28.9736V47.3447H32.9736ZM31.8298 5.9149L38.9734 2.53111L37.261 -1.08384L30.1175 2.29995L31.8298 5.9149ZM38.1172 2.72363H38.4932V-1.27637H38.1172V2.72363ZM36.4932 0.723633V47.3447H40.4932V0.723633H36.4932ZM36.4932 47.3447C36.4932 50.4523 39.2148 52.3768 42.305 53.6027L43.78 49.8846C40.8044 48.7042 40.4932 47.6961 40.4932 47.3447H36.4932ZM42.3112 53.6052C44.6735 54.5332 47.2307 54.9844 49.9604 54.9844V50.9844C47.6772 50.9844 45.6224 50.6084 43.7738 49.8821L42.3112 53.6052ZM49.9604 54.9844C52.6902 54.9844 55.2474 54.5332 57.6097 53.6052L56.1471 49.8821C54.2985 50.6084 52.2437 50.9844 49.9604 50.9844V54.9844ZM57.6159 53.6027C60.7061 52.3768 63.4277 50.4523 63.4277 47.3447H59.4277C59.4277 47.6961 59.1165 48.7042 56.1409 49.8846L57.6159 53.6027ZM63.4277 47.3447V4.10742H59.4277V47.3447H63.4277ZM62.2839 5.9149L69.4275 2.53111L67.7151 -1.08384L60.5716 2.29995L62.2839 5.9149ZM68.5713 2.72363H68.9473V-1.27637H68.5713V2.72363ZM66.9473 0.723633V47.3447H70.9473V0.723633H66.9473ZM66.9473 47.3447C66.9473 49.187 66.3892 50.7511 65.2667 52.1209C64.1162 53.5247 62.2957 54.8148 59.6474 55.9114L61.1778 59.6071C64.2193 58.3476 66.6661 56.7239 68.3605 54.6562C70.0829 52.5545 70.9473 50.0894 70.9473 47.3447H66.9473ZM59.6423 55.9136C56.7259 57.1307 53.5067 57.752 49.9604 57.752V61.752C53.9839 61.752 57.7328 61.0448 61.1829 59.605L59.6423 55.9136ZM49.9604 57.752C46.387 57.752 43.1704 57.1299 40.2838 55.9157L38.7328 59.6028C42.1626 61.0455 45.9141 61.752 49.9604 61.752V57.752ZM40.2844 55.916C38.5086 55.1683 37.0879 54.3413 35.9865 53.4559L33.4803 56.5734C34.9355 57.7433 36.6981 58.7461 38.7322 59.6025L40.2844 55.916ZM33.4803 53.4559C32.3789 54.3413 30.9582 55.1683 29.1824 55.916L30.7346 59.6025C32.7687 58.7461 34.5313 57.7433 35.9865 56.5734L33.4803 53.4559ZM29.183 55.9157C26.2964 57.1299 23.0798 57.752 19.5063 57.752V61.752C23.5527 61.752 27.3041 61.0455 30.734 59.6028L29.183 55.9157ZM19.5063 57.752C15.9601 57.752 12.7409 57.1307 9.82446 55.9136L8.28394 59.605C11.734 61.0448 15.4829 61.752 19.5063 61.752V57.752ZM9.81938 55.9114C7.17114 54.8148 5.35058 53.5247 4.20012 52.1209C3.07758 50.7511 2.51953 49.187 2.51953 47.3447H-1.48047C-1.48047 50.0894 -0.616078 52.5545 1.10628 54.6562C2.80071 56.7239 5.24748 58.3476 8.28902 59.6071L9.81938 55.9114ZM2.51953 47.3447V4.10742H-1.48047V47.3447H2.51953ZM113.312 42.3442H115.312V40.3442H113.312V42.3442ZM106.282 58.2856L107.002 60.1514L107.01 60.1484L107.018 60.1453L106.282 58.2856ZM89.1372 58.2856L88.4013 60.1453L88.409 60.1484L88.4168 60.1514L89.1372 58.2856ZM89.1372 18.3569L88.4168 16.4912L88.409 16.4942L88.4013 16.4972L89.1372 18.3569ZM106.282 18.3569L107.018 16.4972L107.01 16.4942L107.002 16.4912L106.282 18.3569ZM113.312 30.9146L114.536 32.4969L115.312 31.8964V30.9146H113.312ZM89.626 49.2246L88.4028 47.6423L87.626 48.2428V49.2246H89.626ZM91.957 52.0444L91.2091 53.8993L91.2193 53.9034L91.957 52.0444ZM103.424 52.0444L102.687 50.1854L102.676 50.1896L103.424 52.0444ZM105.793 45.728L104.937 43.9206L103.793 44.4624V45.728H105.793ZM112.937 42.3442V40.3442H112.487L112.08 40.5368L112.937 42.3442ZM89.626 41.2915H87.626V45.4679L90.8798 42.8497L89.626 41.2915ZM105.793 28.2827L107.047 29.8409L107.793 29.2405V28.2827H105.793ZM103.424 24.5981L102.676 26.4531L102.687 26.4571L103.424 24.5981ZM91.957 24.5981L91.2193 22.7391L91.2091 22.7433L91.957 24.5981ZM111.312 42.3442V50.5405H115.312V42.3442H111.312ZM111.312 50.5405C111.312 52.6248 109.932 54.6903 105.546 56.426L107.018 60.1453C112.006 58.1714 115.312 55.0734 115.312 50.5405H111.312ZM105.561 56.4199C103.296 57.2948 100.688 57.752 97.7095 57.752V61.752C101.097 61.752 104.205 61.2316 107.002 60.1514L105.561 56.4199ZM97.7095 57.752C94.7307 57.752 92.1233 57.2948 89.8576 56.4199L88.4168 60.1514C91.2142 61.2316 94.3217 61.752 97.7095 61.752V57.752ZM89.8731 56.426C85.487 54.6903 84.1064 52.6248 84.1064 50.5405H80.1064C80.1064 55.0734 83.4131 58.1714 88.4013 60.1453L89.8731 56.426ZM84.1064 50.5405V26.1021H80.1064V50.5405H84.1064ZM84.1064 26.1021C84.1064 24.0177 85.487 21.9523 89.8731 20.2166L88.4013 16.4972C83.4131 18.4712 80.1064 21.5692 80.1064 26.1021H84.1064ZM89.8576 20.2227C92.1233 19.3478 94.7307 18.8906 97.7095 18.8906V14.8906C94.3217 14.8906 91.2142 15.411 88.4168 16.4912L89.8576 20.2227ZM97.7095 18.8906C100.688 18.8906 103.296 19.3478 105.561 20.2227L107.002 16.4912C104.205 15.411 101.097 14.8906 97.7095 14.8906V18.8906ZM105.546 20.2166C109.932 21.9523 111.312 24.0177 111.312 26.1021H115.312C115.312 21.5692 112.006 18.4712 107.018 16.4972L105.546 20.2166ZM111.312 26.1021V30.9146H115.312V26.1021H111.312ZM112.089 29.3322L88.4028 47.6423L90.8492 50.807L114.536 32.4969L112.089 29.3322ZM87.626 49.2246C87.626 50.3024 87.9736 51.3047 88.6673 52.1438C89.3323 52.9483 90.2332 53.5058 91.2091 53.8993L92.705 50.1896C92.1268 49.9564 91.8622 49.7307 91.7502 49.5952C91.6669 49.4944 91.626 49.4001 91.626 49.2246H87.626ZM91.2193 53.9034C93.0964 54.6483 95.2792 54.9844 97.7095 54.9844V50.9844C95.628 50.9844 93.9759 50.6939 92.6947 50.1855L91.2193 53.9034ZM97.7095 54.9844C100.138 54.9844 102.314 54.6487 104.172 53.8993L102.676 50.1896C101.427 50.6934 99.7925 50.9844 97.7095 50.9844V54.9844ZM104.162 53.9034C105.147 53.5124 106.058 52.9582 106.732 52.1559C107.437 51.3174 107.793 50.311 107.793 49.2246H103.793C103.793 49.3914 103.755 49.4816 103.669 49.5831C103.554 49.7208 103.28 49.9498 102.687 50.1855L104.162 53.9034ZM107.793 49.2246V45.728H103.793V49.2246H107.793ZM106.649 47.5355L113.793 44.1517L112.08 40.5368L104.937 43.9206L106.649 47.5355ZM112.937 44.3442H113.312V40.3442H112.937V44.3442ZM90.8798 42.8497L107.047 29.8409L104.539 26.7245L88.3722 39.7333L90.8798 42.8497ZM107.793 28.2827V27.418H103.793V28.2827H107.793ZM107.793 27.418C107.793 26.3315 107.437 25.3251 106.732 24.4867C106.058 23.6844 105.147 23.1302 104.162 22.7392L102.687 26.4571C103.28 26.6928 103.554 26.9218 103.669 27.0595C103.755 27.161 103.793 27.2511 103.793 27.418H107.793ZM104.172 22.7433C102.314 21.9939 100.138 21.6582 97.7095 21.6582V25.6582C99.7925 25.6582 101.427 25.9492 102.676 26.453L104.172 22.7433ZM97.7095 21.6582C95.2792 21.6582 93.0964 21.9943 91.2193 22.7392L92.6947 26.4571C93.9759 25.9487 95.628 25.6582 97.7095 25.6582V21.6582ZM91.2091 22.7433C90.2332 23.1368 89.3323 23.6943 88.6673 24.4988C87.9736 25.3379 87.626 26.3402 87.626 27.418H91.626C91.626 27.2425 91.6669 27.1482 91.7502 27.0474C91.8622 26.9119 92.1268 26.6862 92.705 26.453L91.2091 22.7433ZM87.626 27.418V41.2915H91.626V27.418H87.626ZM129.555 60.5039H127.555V62.5039H129.555V60.5039ZM129.555 24.4854H131.555V22.4854H129.555V24.4854ZM119.892 24.4854H117.892V26.4854H119.892V24.4854ZM119.892 24.1094L118.083 23.2573L117.892 23.662V24.1094H119.892ZM122.938 17.6426V15.6426H121.669L121.128 16.7905L122.938 17.6426ZM129.555 17.6426V19.6426H131.555V17.6426H129.555ZM129.555 4.10742L128.699 2.29995L127.555 2.84176V4.10742H129.555ZM136.698 0.723633V-1.27637H136.249L135.842 -1.08384L136.698 0.723633ZM137.074 0.723633H139.074V-1.27637H137.074V0.723633ZM137.074 17.6426H135.074V19.6426H137.074V17.6426ZM146.737 17.6426H148.737V15.6426H146.737V17.6426ZM146.737 18.0186L148.546 18.8707L148.737 18.4659V18.0186H146.737ZM143.691 24.4854V26.4854H144.96L145.501 25.3375L143.691 24.4854ZM137.074 24.4854V22.4854H135.074V24.4854H137.074ZM137.074 57.1201L137.93 58.9276L139.074 58.3858V57.1201H137.074ZM129.931 60.5039V62.5039H130.38L130.787 62.3114L129.931 60.5039ZM131.555 60.5039V24.4854H127.555V60.5039H131.555ZM129.555 22.4854H119.892V26.4854H129.555V22.4854ZM121.892 24.4854V24.1094H117.892V24.4854H121.892ZM121.701 24.9615L124.747 18.4947L121.128 16.7905L118.083 23.2573L121.701 24.9615ZM122.938 19.6426H129.555V15.6426H122.938V19.6426ZM131.555 17.6426V4.10742H127.555V17.6426H131.555ZM130.411 5.9149L137.554 2.53111L135.842 -1.08384L128.699 2.29995L130.411 5.9149ZM136.698 2.72363H137.074V-1.27637H136.698V2.72363ZM135.074 0.723633V17.6426H139.074V0.723633H135.074ZM137.074 19.6426H146.737V15.6426H137.074V19.6426ZM144.737 17.6426V18.0186H148.737V17.6426H144.737ZM144.927 17.1665L141.882 23.6333L145.501 25.3375L148.546 18.8707L144.927 17.1665ZM143.691 22.4854H137.074V26.4854H143.691V22.4854ZM135.074 24.4854V57.1201H139.074V24.4854H135.074ZM136.218 55.3126L129.074 58.6964L130.787 62.3114L137.93 58.9276L136.218 55.3126ZM129.931 58.5039H129.555V62.5039H129.931V58.5039Z" fill="black"/>
<defs>
<filter id="filter0_d_0_1" x="23.7148" y="66.21" width="103.625" height="69.333" filterUnits="userSpaceOnUse" color-interpolation-filters="sRGB">
<feFlood flood-opacity="0" result="BackgroundImageFix"/>
<feColorMatrix in="SourceAlpha" type="matrix" values="0 0 0 0 0 0 0 0 0 0 0 0 0 0 0 0 0 0 127 0" result="hardAlpha"/>
<feOffset dy="4"/>
<feGaussianBlur stdDeviation="2"/>
<feComposite in2="hardAlpha" operator="out"/>
<feColorMatrix type="matrix" values="0 0 0 0 0 0 0 0 0 0 0 0 0 0 0 0 0 0 0.25 0"/>
<feBlend mode="normal" in2="BackgroundImageFix" result="effect1_dropShadow_0_1"/>
<feBlend mode="normal" in="SourceGraphic" in2="effect1_dropShadow_0_1" result="shape"/>
</filter>
</defs>
</svg>
