<svg width="68" height="63" viewBox="0 0 68 63" fill="none" xmlns="http://www.w3.org/2000/svg">
<mask id="path-1-outside-1_11_2" maskUnits="userSpaceOnUse" x="0.703125" y="0.300781" width="67" height="63" fill="black">
<rect fill="white" x="0.703125" y="0.300781" width="67" height="63"/>
<path fill-rule="evenodd" clip-rule="evenodd" d="M5.76465 2.30078L2.70312 3.75098V22.2812C2.70312 24.2471 3.92236 25.7349 6.36084 26.7446C7.7251 27.314 9.21826 27.5986 10.8403 27.5986C12.4731 27.5986 13.9663 27.314 15.3198 26.7446C16.1362 26.4009 16.8184 26.0088 17.3662 25.5684C17.9141 26.0088 18.5962 26.4009 19.4126 26.7446C20.7661 27.314 22.2593 27.5986 23.8921 27.5986C25.5142 27.5986 27.0073 27.314 28.3716 26.7446C30.8101 25.7349 32.0293 24.2471 32.0293 22.2812V2.30078H31.8682L28.8066 3.75098V22.2812C28.8066 23.0225 28.1567 23.6509 26.8569 24.1665C25.9546 24.521 24.9663 24.6982 23.8921 24.6982C22.8179 24.6982 21.8296 24.521 20.9272 24.1665C19.6274 23.6509 18.9775 23.0225 18.9775 22.2812V2.30078H18.8164L15.7549 3.75098V22.2812C15.7549 23.0225 15.105 23.6509 13.8052 24.1665C12.9028 24.521 11.9146 24.6982 10.8403 24.6982C9.76611 24.6982 8.77783 24.521 7.87549 24.1665C6.57568 23.6509 5.92578 23.0225 5.92578 22.2812V2.30078H5.76465ZM51.043 23.6509V20.1382H50.8818L47.8203 21.5884V23.0869C47.8203 23.624 47.4819 24.0269 46.8052 24.2954C46.1392 24.564 45.3228 24.6982 44.356 24.6982C43.3892 24.6982 42.5674 24.564 41.8906 24.2954C41.2246 24.0269 40.8916 23.624 40.8916 23.0869L51.043 15.2397V13.1772C51.043 11.7593 50.0386 10.6528 48.0298 9.85791C46.9448 9.43896 45.7202 9.22949 44.356 9.22949C42.9917 9.22949 41.7671 9.43896 40.6821 9.85791C38.6733 10.6528 37.6689 11.7593 37.6689 13.1772V23.6509C37.6689 25.0688 38.6733 26.1753 40.6821 26.9702C41.7671 27.3892 42.9917 27.5986 44.356 27.5986C45.7202 27.5986 46.9448 27.3892 48.0298 26.9702C50.0386 26.1753 51.043 25.0688 51.043 23.6509ZM47.8203 13.7412V14.1118L40.8916 19.687V13.7412C40.8916 13.2041 41.2246 12.8013 41.8906 12.5327C42.5674 12.2642 43.3892 12.1299 44.356 12.1299C45.3228 12.1299 46.1392 12.2642 46.8052 12.5327C47.4819 12.8013 47.8203 13.2041 47.8203 13.7412ZM58.0039 12.4844V27.9209H58.165L61.2266 26.4707V12.4844H64.0625L65.3677 9.71289V9.55176H61.2266V2.30078H61.0654L58.0039 3.75098V9.55176H55.168L53.8628 12.3232V12.4844H58.0039ZM13.3203 35.7617V60.6641H13.4863L16.6406 59.1699V51.5332H21.3721C23.0433 51.5332 24.5817 51.2399 25.9873 50.6533C28.4997 49.613 29.7559 48.0801 29.7559 46.0547V40.4102C29.7559 38.3848 28.4997 36.8519 25.9873 35.8115C24.5817 35.2249 23.0433 34.9316 21.3721 34.9316H15.0801L13.3203 35.7617ZM21.3721 48.5449H16.6406V37.9199H21.3721C22.4788 37.9199 23.4971 38.1025 24.4268 38.4678C25.766 38.988 26.4355 39.6354 26.4355 40.4102V46.0547C26.4355 46.8184 25.766 47.4658 24.4268 47.9971C23.4971 48.3623 22.4788 48.5449 21.3721 48.5449ZM35.2344 36.6416C35.2344 37.195 35.4281 37.6709 35.8154 38.0693C36.2028 38.4678 36.6732 38.667 37.2266 38.667C37.7799 38.667 38.2503 38.4678 38.6377 38.0693C39.0251 37.6709 39.2188 37.195 39.2188 36.6416C39.2188 36.0771 39.0251 35.5957 38.6377 35.1973C38.2503 34.7988 37.7799 34.5996 37.2266 34.5996C36.6732 34.5996 36.2028 34.7988 35.8154 35.1973C35.4281 35.5957 35.2344 36.0771 35.2344 36.6416ZM35.5664 42.5684V60.6641H35.7324L38.8867 59.1699V41.0742H38.7207L35.5664 42.5684ZM46.8887 44.7598V60.6641H47.0547L50.209 59.1699V44.7598H53.1309L54.4756 41.9043V41.7383H50.209V34.2676H50.043L46.8887 35.7617V41.7383H43.9668L42.6221 44.5938V44.7598H46.8887Z"/>
</mask>
<path fill-rule="evenodd" clip-rule="evenodd" d="M5.76465 2.30078L2.70312 3.75098V22.2812C2.70312 24.2471 3.92236 25.7349 6.36084 26.7446C7.7251 27.314 9.21826 27.5986 10.8403 27.5986C12.4731 27.5986 13.9663 27.314 15.3198 26.7446C16.1362 26.4009 16.8184 26.0088 17.3662 25.5684C17.9141 26.0088 18.5962 26.4009 19.4126 26.7446C20.7661 27.314 22.2593 27.5986 23.8921 27.5986C25.5142 27.5986 27.0073 27.314 28.3716 26.7446C30.8101 25.7349 32.0293 24.2471 32.0293 22.2812V2.30078H31.8682L28.8066 3.75098V22.2812C28.8066 23.0225 28.1567 23.6509 26.8569 24.1665C25.9546 24.521 24.9663 24.6982 23.8921 24.6982C22.8179 24.6982 21.8296 24.521 20.9272 24.1665C19.6274 23.6509 18.9775 23.0225 18.9775 22.2812V2.30078H18.8164L15.7549 3.75098V22.2812C15.7549 23.0225 15.105 23.6509 13.8052 24.1665C12.9028 24.521 11.9146 24.6982 10.8403 24.6982C9.76611 24.6982 8.77783 24.521 7.87549 24.1665C6.57568 23.6509 5.92578 23.0225 5.92578 22.2812V2.30078H5.76465ZM51.043 23.6509V20.1382H50.8818L47.8203 21.5884V23.0869C47.8203 23.624 47.4819 24.0269 46.8052 24.2954C46.1392 24.564 45.3228 24.6982 44.356 24.6982C43.3892 24.6982 42.5674 24.564 41.8906 24.2954C41.2246 24.0269 40.8916 23.624 40.8916 23.0869L51.043 15.2397V13.1772C51.043 11.7593 50.0386 10.6528 48.0298 9.85791C46.9448 9.43896 45.7202 9.22949 44.356 9.22949C42.9917 9.22949 41.7671 9.43896 40.6821 9.85791C38.6733 10.6528 37.6689 11.7593 37.6689 13.1772V23.6509C37.6689 25.0688 38.6733 26.1753 40.6821 26.9702C41.7671 27.3892 42.9917 27.5986 44.356 27.5986C45.7202 27.5986 46.9448 27.3892 48.0298 26.9702C50.0386 26.1753 51.043 25.0688 51.043 23.6509ZM47.8203 13.7412V14.1118L40.8916 19.687V13.7412C40.8916 13.2041 41.2246 12.8013 41.8906 12.5327C42.5674 12.2642 43.3892 12.1299 44.356 12.1299C45.3228 12.1299 46.1392 12.2642 46.8052 12.5327C47.4819 12.8013 47.8203 13.2041 47.8203 13.7412ZM58.0039 12.4844V27.9209H58.165L61.2266 26.4707V12.4844H64.0625L65.3677 9.71289V9.55176H61.2266V2.30078H61.0654L58.0039 3.75098V9.55176H55.168L53.8628 12.3232V12.4844H58.0039ZM13.3203 35.7617V60.6641H13.4863L16.6406 59.1699V51.5332H21.3721C23.0433 51.5332 24.5817 51.2399 25.9873 50.6533C28.4997 49.613 29.7559 48.0801 29.7559 46.0547V40.4102C29.7559 38.3848 28.4997 36.8519 25.9873 35.8115C24.5817 35.2249 23.0433 34.9316 21.3721 34.9316H15.0801L13.3203 35.7617ZM21.3721 48.5449H16.6406V37.9199H21.3721C22.4788 37.9199 23.4971 38.1025 24.4268 38.4678C25.766 38.988 26.4355 39.6354 26.4355 40.4102V46.0547C26.4355 46.8184 25.766 47.4658 24.4268 47.9971C23.4971 48.3623 22.4788 48.5449 21.3721 48.5449ZM35.2344 36.6416C35.2344 37.195 35.4281 37.6709 35.8154 38.0693C36.2028 38.4678 36.6732 38.667 37.2266 38.667C37.7799 38.667 38.2503 38.4678 38.6377 38.0693C39.0251 37.6709 39.2188 37.195 39.2188 36.6416C39.2188 36.0771 39.0251 35.5957 38.6377 35.1973C38.2503 34.7988 37.7799 34.5996 37.2266 34.5996C36.6732 34.5996 36.2028 34.7988 35.8154 35.1973C35.4281 35.5957 35.2344 36.0771 35.2344 36.6416ZM35.5664 42.5684V60.6641H35.7324L38.8867 59.1699V41.0742H38.7207L35.5664 42.5684ZM46.8887 44.7598V60.6641H47.0547L50.209 59.1699V44.7598H53.1309L54.4756 41.9043V41.7383H50.209V34.2676H50.043L46.8887 35.7617V41.7383H43.9668L42.6221 44.5938V44.7598H46.8887Z" fill="#FCFF78"/>
<path d="M2.70312 3.75098L1.84695 1.9435L0.703125 2.48531V3.75098H2.70312ZM5.76465 2.30078V0.300781H5.31492L4.90848 0.493306L5.76465 2.30078ZM6.36084 26.7446L7.13111 24.8989L7.12602 24.8968L6.36084 26.7446ZM15.3198 26.7446L16.0953 28.5882L16.0959 28.5879L15.3198 26.7446ZM17.3662 25.5684L18.6193 24.0096L17.3662 23.0022L16.1131 24.0096L17.3662 25.5684ZM19.4126 26.7446L18.6365 28.5879L18.6371 28.5882L19.4126 26.7446ZM28.3716 26.7446L27.6064 24.8968L27.6013 24.8989L28.3716 26.7446ZM32.0293 2.30078H34.0293V0.300781H32.0293V2.30078ZM31.8682 2.30078V0.300781H31.4184L31.012 0.493306L31.8682 2.30078ZM28.8066 3.75098L27.9505 1.9435L26.8066 2.48531V3.75098H28.8066ZM26.8569 24.1665L27.5882 26.028L27.5944 26.0256L26.8569 24.1665ZM20.9272 24.1665L20.1898 26.0256L20.1959 26.028L20.9272 24.1665ZM18.9775 2.30078H20.9775V0.300781H18.9775V2.30078ZM18.8164 2.30078V0.300781H18.3667L17.9602 0.493306L18.8164 2.30078ZM15.7549 3.75098L14.8987 1.9435L13.7549 2.48531V3.75098H15.7549ZM13.8052 24.1665L14.5365 26.028L14.5427 26.0256L13.8052 24.1665ZM7.87549 24.1665L7.138 26.0256L7.14418 26.028L7.87549 24.1665ZM5.92578 2.30078H7.92578V0.300781H5.92578V2.30078ZM51.043 20.1382H53.043V18.1382H51.043V20.1382ZM50.8818 20.1382V18.1382H50.4321L50.0257 18.3307L50.8818 20.1382ZM47.8203 21.5884L46.9641 19.7809L45.8203 20.3227V21.5884H47.8203ZM46.8052 24.2954L46.0675 22.4364L46.0572 22.4405L46.8052 24.2954ZM41.8906 24.2954L41.1427 26.1503L41.1529 26.1544L41.8906 24.2954ZM40.8916 23.0869L39.6684 21.5046L38.8916 22.1051V23.0869H40.8916ZM51.043 15.2397L52.2661 16.8221L53.043 16.2216V15.2397H51.043ZM48.0298 9.85791L48.7657 7.99823L48.758 7.99517L48.7502 7.99217L48.0298 9.85791ZM40.6821 9.85791L39.9617 7.99217L39.9539 7.99517L39.9462 7.99823L40.6821 9.85791ZM40.6821 26.9702L39.9462 28.8299L39.9539 28.833L39.9617 28.836L40.6821 26.9702ZM48.0298 26.9702L48.7502 28.836L48.758 28.833L48.7657 28.8299L48.0298 26.9702ZM47.8203 14.1118L49.0741 15.67L49.8203 15.0696V14.1118H47.8203ZM40.8916 19.687H38.8916V23.8634L42.1454 21.2452L40.8916 19.687ZM41.8906 12.5327L41.1529 10.6737L41.1427 10.6778L41.8906 12.5327ZM46.8052 12.5327L46.0572 14.3876L46.0675 14.3917L46.8052 12.5327ZM58.0039 27.9209H56.0039V29.9209H58.0039V27.9209ZM58.0039 12.4844H60.0039V10.4844H58.0039V12.4844ZM58.165 27.9209V29.9209H58.6148L59.0212 29.7284L58.165 27.9209ZM61.2266 26.4707L62.0827 28.2782L63.2266 27.7364V26.4707H61.2266ZM61.2266 12.4844V10.4844H59.2266V12.4844H61.2266ZM64.0625 12.4844V14.4844H65.3313L65.8719 13.3365L64.0625 12.4844ZM65.3677 9.71289L67.1771 10.565L67.3677 10.1603V9.71289H65.3677ZM65.3677 9.55176H67.3677V7.55176H65.3677V9.55176ZM61.2266 9.55176H59.2266V11.5518H61.2266V9.55176ZM61.2266 2.30078H63.2266V0.300781H61.2266V2.30078ZM61.0654 2.30078V0.300781H60.6157L60.2093 0.493306L61.0654 2.30078ZM58.0039 3.75098L57.1477 1.9435L56.0039 2.48531V3.75098H58.0039ZM58.0039 9.55176V11.5518H60.0039V9.55176H58.0039ZM55.168 9.55176V7.55176H53.8992L53.3586 8.69966L55.168 9.55176ZM53.8628 12.3232L52.0534 11.4711L51.8628 11.8759V12.3232H53.8628ZM53.8628 12.4844H51.8628V14.4844H53.8628V12.4844ZM13.3203 60.6641H11.3203V62.6641H13.3203V60.6641ZM13.3203 35.7617L12.4671 33.9529L11.3203 34.4938V35.7617H13.3203ZM13.4863 60.6641V62.6641H13.9361L14.3425 62.4715L13.4863 60.6641ZM16.6406 59.1699L17.4968 60.9774L18.6406 60.4356V59.1699H16.6406ZM16.6406 51.5332V49.5332H14.6406V51.5332H16.6406ZM25.9873 50.6533L25.2221 48.8055L25.217 48.8076L25.9873 50.6533ZM25.9873 35.8115L25.217 37.6573L25.2221 37.6594L25.9873 35.8115ZM15.0801 34.9316V32.9316H14.6321L14.2268 33.1228L15.0801 34.9316ZM16.6406 48.5449H14.6406V50.5449H16.6406V48.5449ZM16.6406 37.9199V35.9199H14.6406V37.9199H16.6406ZM24.4268 38.4678L23.6954 40.3293L23.7026 40.3321L24.4268 38.4678ZM24.4268 47.9971L25.1581 49.8586L25.1642 49.8561L24.4268 47.9971ZM35.5664 60.6641H33.5664V62.6641H35.5664V60.6641ZM35.5664 42.5684L34.7102 40.7609L33.5664 41.3027V42.5684H35.5664ZM35.7324 60.6641V62.6641H36.1822L36.5886 62.4715L35.7324 60.6641ZM38.8867 59.1699L39.7429 60.9774L40.8867 60.4356V59.1699H38.8867ZM38.8867 41.0742H40.8867V39.0742H38.8867V41.0742ZM38.7207 41.0742V39.0742H38.271L37.8645 39.2667L38.7207 41.0742ZM46.8887 60.6641H44.8887V62.6641H46.8887V60.6641ZM46.8887 44.7598H48.8887V42.7598H46.8887V44.7598ZM47.0547 60.6641V62.6641H47.5044L47.9109 62.4715L47.0547 60.6641ZM50.209 59.1699L51.0652 60.9774L52.209 60.4356V59.1699H50.209ZM50.209 44.7598V42.7598H48.209V44.7598H50.209ZM53.1309 44.7598V46.7598H54.3997L54.9403 45.6119L53.1309 44.7598ZM54.4756 41.9043L56.285 42.7564L56.4756 42.3517V41.9043H54.4756ZM54.4756 41.7383H56.4756V39.7383H54.4756V41.7383ZM50.209 41.7383H48.209V43.7383H50.209V41.7383ZM50.209 34.2676H52.209V32.2676H50.209V34.2676ZM50.043 34.2676V32.2676H49.5932L49.1868 32.4601L50.043 34.2676ZM46.8887 35.7617L46.0325 33.9542L44.8887 34.4961V35.7617H46.8887ZM46.8887 41.7383V43.7383H48.8887V41.7383H46.8887ZM43.9668 41.7383V39.7383H42.698L42.1574 40.8862L43.9668 41.7383ZM42.6221 44.5938L40.8127 43.7416L40.6221 44.1464V44.5938H42.6221ZM42.6221 44.7598H40.6221V46.7598H42.6221V44.7598ZM3.5593 5.55845L6.62082 4.10826L4.90848 0.493306L1.84695 1.9435L3.5593 5.55845ZM4.70312 22.2812V3.75098H0.703125V22.2812H4.70312ZM7.12602 24.8968C6.10344 24.4733 5.50211 24.0158 5.16447 23.6038C4.85477 23.2258 4.70312 22.813 4.70312 22.2812H0.703125C0.703125 23.7153 1.1611 25.0293 2.07063 26.1392C2.95224 27.2149 4.17977 28.0061 5.59566 28.5925L7.12602 24.8968ZM10.8403 25.5986C9.45684 25.5986 8.22856 25.3569 7.1311 24.8989L5.59058 28.5904C7.22164 29.271 8.97968 29.5986 10.8403 29.5986V25.5986ZM14.5444 24.9011C13.4625 25.3562 12.2367 25.5986 10.8403 25.5986V29.5986C12.7096 29.5986 14.4702 29.2718 16.0953 28.5882L14.5444 24.9011ZM16.1131 24.0096C15.7422 24.3078 15.231 24.612 14.5437 24.9014L16.0959 28.5879C17.0414 28.1898 17.8946 27.7098 18.6193 27.1271L16.1131 24.0096ZM20.1887 24.9014C19.5014 24.612 18.9903 24.3078 18.6193 24.0096L16.1131 27.1271C16.8379 27.7098 17.691 28.1898 18.6365 28.5879L20.1887 24.9014ZM23.8921 25.5986C22.4957 25.5986 21.27 25.3562 20.1881 24.9011L18.6371 28.5882C20.2623 29.2718 22.0228 29.5986 23.8921 29.5986V25.5986ZM27.6013 24.8989C26.5039 25.3569 25.2756 25.5986 23.8921 25.5986V29.5986C25.7527 29.5986 27.5108 29.271 29.1418 28.5904L27.6013 24.8989ZM30.0293 22.2812C30.0293 22.813 29.8777 23.2258 29.5679 23.6038C29.2303 24.0158 28.629 24.4733 27.6064 24.8968L29.1368 28.5925C30.5527 28.0061 31.7802 27.2149 32.6618 26.1392C33.5713 25.0293 34.0293 23.7153 34.0293 22.2812H30.0293ZM30.0293 2.30078V22.2812H34.0293V2.30078H30.0293ZM31.8682 4.30078H32.0293V0.300781H31.8682V4.30078ZM29.6628 5.55845L32.7243 4.10826L31.012 0.493306L27.9505 1.9435L29.6628 5.55845ZM30.8066 22.2812V3.75098H26.8066V22.2812H30.8066ZM27.5944 26.0256C28.9516 25.4872 30.8066 24.4005 30.8066 22.2812H26.8066C26.8066 22.1631 26.835 22.0491 26.8779 21.9586C26.9173 21.8756 26.9513 21.8491 26.929 21.8707C26.9049 21.894 26.837 21.952 26.6978 22.0337C26.5598 22.1146 26.3708 22.2077 26.1195 22.3074L27.5944 26.0256ZM23.8921 26.6982C25.1896 26.6982 26.4291 26.4834 27.5882 26.028L26.1256 22.305C25.4801 22.5586 24.743 22.6982 23.8921 22.6982V26.6982ZM20.1959 26.028C21.3551 26.4834 22.5946 26.6982 23.8921 26.6982V22.6982C23.0411 22.6982 22.3041 22.5586 21.6586 22.305L20.1959 26.028ZM16.9775 22.2812C16.9775 24.4005 18.8326 25.4872 20.1898 26.0256L21.6647 22.3074C21.4134 22.2077 21.2244 22.1146 21.0864 22.0337C20.9472 21.952 20.8793 21.894 20.8552 21.8707C20.8329 21.8491 20.8669 21.8756 20.9063 21.9586C20.9492 22.0491 20.9775 22.1631 20.9775 22.2812H16.9775ZM16.9775 2.30078V22.2812H20.9775V2.30078H16.9775ZM18.8164 4.30078H18.9775V0.300781H18.8164V4.30078ZM16.6111 5.55845L19.6726 4.10826L17.9602 0.493306L14.8987 1.9435L16.6111 5.55845ZM17.7549 22.2812V3.75098H13.7549V22.2812H17.7549ZM14.5427 26.0256C15.8998 25.4872 17.7549 24.4005 17.7549 22.2812H13.7549C13.7549 22.1631 13.7832 22.0491 13.8261 21.9586C13.8655 21.8756 13.8995 21.8491 13.8772 21.8707C13.8531 21.894 13.7852 21.952 13.646 22.0337C13.508 22.1146 13.3191 22.2077 13.0677 22.3074L14.5427 26.0256ZM10.8403 26.6982C12.1378 26.6982 13.3773 26.4834 14.5365 26.028L13.0739 22.305C12.4284 22.5586 11.6913 22.6982 10.8403 22.6982V26.6982ZM7.14418 26.028C8.30337 26.4834 9.54284 26.6982 10.8403 26.6982V22.6982C9.98938 22.6982 9.25229 22.5586 8.60679 22.305L7.14418 26.028ZM3.92578 22.2812C3.92578 24.4005 5.78085 25.4872 7.13801 26.0256L8.61297 22.3074C8.3616 22.2077 8.17262 22.1146 8.03466 22.0337C7.89543 21.952 7.82752 21.894 7.80346 21.8707C7.78114 21.8491 7.81514 21.8756 7.85454 21.9586C7.89747 22.0491 7.92578 22.1631 7.92578 22.2812H3.92578ZM3.92578 2.30078V22.2812H7.92578V2.30078H3.92578ZM5.76465 4.30078H5.92578V0.300781H5.76465V4.30078ZM49.043 20.1382V23.6509H53.043V20.1382H49.043ZM50.8818 22.1382H51.043V18.1382H50.8818V22.1382ZM48.6765 23.3959L51.738 21.9457L50.0257 18.3307L46.9641 19.7809L48.6765 23.3959ZM49.8203 23.0869V21.5884H45.8203V23.0869H49.8203ZM47.5429 26.1544C48.077 25.9424 48.6496 25.612 49.0979 25.0783C49.5766 24.5084 49.8203 23.8153 49.8203 23.0869H45.8203C45.8203 23.0077 45.8335 22.9028 45.8751 22.7871C45.9169 22.6709 45.9761 22.5758 46.0351 22.5055C46.1451 22.3746 46.2101 22.3798 46.0675 22.4364L47.5429 26.1544ZM44.356 26.6982C45.4956 26.6982 46.5826 26.5416 47.5531 26.1503L46.0572 22.4405C45.6957 22.5863 45.1499 22.6982 44.356 22.6982V26.6982ZM41.1529 26.1544C42.1276 26.5412 43.2148 26.6982 44.356 26.6982V22.6982C43.5635 22.6982 43.0072 22.5868 42.6283 22.4364L41.1529 26.1544ZM38.8916 23.0869C38.8916 23.8066 39.1282 24.4956 39.5999 25.0662C40.0429 25.6021 40.6108 25.9358 41.1427 26.1503L42.6386 22.4405C42.5044 22.3864 42.5728 22.3845 42.6828 22.5176C42.7415 22.5885 42.7989 22.683 42.8392 22.7967C42.8793 22.9097 42.8916 23.0113 42.8916 23.0869H38.8916ZM49.8198 13.6574L39.6684 21.5046L42.1148 24.6693L52.2661 16.8221L49.8198 13.6574ZM49.043 13.1772V15.2397H53.043V13.1772H49.043ZM47.2939 11.7176C49.0016 12.3934 49.043 12.9836 49.043 13.1772H53.043C53.043 10.535 51.0755 8.91228 48.7657 7.99823L47.2939 11.7176ZM44.356 11.2295C45.5157 11.2295 46.4903 11.4074 47.3094 11.7236L48.7502 7.99217C47.3994 7.47056 45.9247 7.22949 44.356 7.22949V11.2295ZM41.4026 11.7236C42.2216 11.4074 43.1962 11.2295 44.356 11.2295V7.22949C42.7872 7.22949 41.3125 7.47056 39.9617 7.99217L41.4026 11.7236ZM39.6689 13.1772C39.6689 12.9836 39.7103 12.3934 41.418 11.7176L39.9462 7.99823C37.6364 8.91228 35.6689 10.535 35.6689 13.1772H39.6689ZM39.6689 23.6509V13.1772H35.6689V23.6509H39.6689ZM41.418 25.1105C39.7103 24.4347 39.6689 23.8446 39.6689 23.6509H35.6689C35.6689 26.2931 37.6364 27.9158 39.9462 28.8299L41.418 25.1105ZM44.356 25.5986C43.1962 25.5986 42.2216 25.4208 41.4026 25.1045L39.9617 28.836C41.3125 29.3576 42.7872 29.5986 44.356 29.5986V25.5986ZM47.3094 25.1045C46.4903 25.4208 45.5157 25.5986 44.356 25.5986V29.5986C45.9247 29.5986 47.3994 29.3576 48.7502 28.836L47.3094 25.1045ZM49.043 23.6509C49.043 23.8446 49.0016 24.4347 47.2939 25.1105L48.7657 28.8299C51.0755 27.9158 53.043 26.2931 53.043 23.6509H49.043ZM49.8203 14.1118V13.7412H45.8203V14.1118H49.8203ZM42.1454 21.2452L49.0741 15.67L46.5665 12.5536L39.6378 18.1288L42.1454 21.2452ZM38.8916 13.7412V19.687H42.8916V13.7412H38.8916ZM41.1427 10.6778C40.6108 10.8923 40.0429 11.226 39.5999 11.762C39.1282 12.3325 38.8916 13.0215 38.8916 13.7412H42.8916C42.8916 13.8169 42.8793 13.9185 42.8392 14.0314C42.7989 14.1452 42.7415 14.2396 42.6828 14.3105C42.5728 14.4437 42.5044 14.4417 42.6386 14.3876L41.1427 10.6778ZM44.356 10.1299C43.2148 10.1299 42.1276 10.287 41.1529 10.6737L42.6283 14.3917C43.0072 14.2414 43.5635 14.1299 44.356 14.1299V10.1299ZM47.5531 10.6778C46.5826 10.2865 45.4956 10.1299 44.356 10.1299V14.1299C45.1499 14.1299 45.6957 14.2418 46.0572 14.3876L47.5531 10.6778ZM49.8203 13.7412C49.8203 13.0129 49.5766 12.3198 49.0979 11.7499C48.6496 11.2162 48.077 10.8857 47.5429 10.6737L46.0675 14.3917C46.2101 14.4483 46.1451 14.4535 46.0351 14.3226C45.9761 14.2523 45.9169 14.1572 45.8751 14.041C45.8335 13.9254 45.8203 13.8204 45.8203 13.7412H49.8203ZM60.0039 27.9209V12.4844H56.0039V27.9209H60.0039ZM58.165 25.9209H58.0039V29.9209H58.165V25.9209ZM60.3704 24.6632L57.3089 26.1134L59.0212 29.7284L62.0827 28.2782L60.3704 24.6632ZM59.2266 12.4844V26.4707H63.2266V12.4844H59.2266ZM64.0625 10.4844H61.2266V14.4844H64.0625V10.4844ZM63.5583 8.86079L62.2531 11.6323L65.8719 13.3365L67.1771 10.565L63.5583 8.86079ZM63.3677 9.55176V9.71289H67.3677V9.55176H63.3677ZM61.2266 11.5518H65.3677V7.55176H61.2266V11.5518ZM59.2266 2.30078V9.55176H63.2266V2.30078H59.2266ZM61.0654 4.30078H61.2266V0.300781H61.0654V4.30078ZM58.8601 5.55845L61.9216 4.10826L60.2093 0.493306L57.1477 1.9435L58.8601 5.55845ZM60.0039 9.55176V3.75098H56.0039V9.55176H60.0039ZM55.168 11.5518H58.0039V7.55176H55.168V11.5518ZM55.6722 13.1753L56.9774 10.4039L53.3586 8.69966L52.0534 11.4711L55.6722 13.1753ZM55.8628 12.4844V12.3232H51.8628V12.4844H55.8628ZM58.0039 10.4844H53.8628V14.4844H58.0039V10.4844ZM15.3203 60.6641V35.7617H11.3203V60.6641H15.3203ZM13.4863 58.6641H13.3203V62.6641H13.4863V58.6641ZM15.7845 57.3624L12.6302 58.8566L14.3425 62.4715L17.4968 60.9774L15.7845 57.3624ZM14.6406 51.5332V59.1699H18.6406V51.5332H14.6406ZM21.3721 49.5332H16.6406V53.5332H21.3721V49.5332ZM25.217 48.8076C24.0782 49.2828 22.8047 49.5332 21.3721 49.5332V53.5332C23.2819 53.5332 25.0852 53.197 26.7576 52.499L25.217 48.8076ZM27.7559 46.0547C27.7559 46.6162 27.595 47.0552 27.2668 47.4557C26.9107 47.8902 26.2817 48.3667 25.2221 48.8055L26.7525 52.5012C28.2053 51.8995 29.4606 51.0894 30.3606 49.9911C31.2886 48.8587 31.7559 47.5185 31.7559 46.0547H27.7559ZM27.7559 40.4102V46.0547H31.7559V40.4102H27.7559ZM25.2221 37.6594C26.2817 38.0981 26.9107 38.5746 27.2668 39.0091C27.595 39.4096 27.7559 39.8486 27.7559 40.4102H31.7559C31.7559 38.9463 31.2886 37.6062 30.3606 36.4738C29.4606 35.3754 28.2053 34.5653 26.7525 33.9637L25.2221 37.6594ZM21.3721 36.9316C22.8047 36.9316 24.0782 37.182 25.217 37.6572L26.7576 33.9658C25.0852 33.2679 23.2819 32.9316 21.3721 32.9316V36.9316ZM15.0801 36.9316H21.3721V32.9316H15.0801V36.9316ZM14.1735 37.5706L15.9333 36.7405L14.2268 33.1228L12.4671 33.9529L14.1735 37.5706ZM16.6406 50.5449H21.3721V46.5449H16.6406V50.5449ZM14.6406 37.9199V48.5449H18.6406V37.9199H14.6406ZM21.3721 35.9199H16.6406V39.9199H21.3721V35.9199ZM25.1581 36.6063C23.9715 36.1401 22.7021 35.9199 21.3721 35.9199V39.9199C22.2556 39.9199 23.0226 40.0649 23.6955 40.3293L25.1581 36.6063ZM28.4355 40.4102C28.4355 38.2579 26.5652 37.1528 25.1509 36.6035L23.7026 40.3321C23.9621 40.4329 24.1575 40.5278 24.3005 40.6109C24.4447 40.6947 24.5163 40.7553 24.5431 40.7813C24.5679 40.8053 24.5371 40.7826 24.5005 40.7049C24.4606 40.6202 24.4355 40.5154 24.4355 40.4102H28.4355ZM28.4355 46.0547V40.4102H24.4355V46.0547H28.4355ZM25.1642 49.8561C26.5608 49.3021 28.4355 48.1964 28.4355 46.0547H24.4355C24.4355 45.9422 24.4626 45.8336 24.5031 45.7483C24.54 45.6704 24.5703 45.6489 24.5431 45.6753C24.5141 45.7033 24.4401 45.7658 24.2934 45.8519C24.1481 45.9372 23.9505 46.0344 23.6893 46.138L25.1642 49.8561ZM21.3721 50.5449C22.7021 50.5449 23.9715 50.3247 25.1581 49.8586L23.6955 46.1356C23.0226 46.3999 22.2556 46.5449 21.3721 46.5449V50.5449ZM37.2494 36.6752C37.2335 36.6588 37.2275 36.6498 37.2269 36.649C37.2266 36.6485 37.2291 36.6524 37.2321 36.6597C37.2334 36.663 37.2345 36.666 37.2352 36.6686C37.236 36.6711 37.2362 36.6725 37.2362 36.6723C37.2362 36.6722 37.2344 36.6628 37.2344 36.6416H33.2344C33.2344 37.7181 33.6328 38.6935 34.3814 39.4635L37.2494 36.6752ZM37.2266 36.667C37.2087 36.667 37.2038 36.6654 37.2091 36.6665C37.2116 36.6669 37.2157 36.6679 37.2211 36.6695C37.2266 36.6712 37.2326 36.6733 37.2387 36.6759C37.2449 36.6786 37.2505 36.6813 37.2552 36.684C37.26 36.6866 37.2632 36.6887 37.2649 36.6899C37.2685 36.6924 37.263 36.6892 37.2494 36.6752L34.3814 39.4635C35.1436 40.2474 36.1304 40.667 37.2266 40.667V36.667ZM37.2037 36.6752C37.1901 36.6892 37.1846 36.6924 37.1882 36.6899C37.1899 36.6887 37.1931 36.6866 37.1979 36.684C37.2026 36.6813 37.2082 36.6786 37.2144 36.6759C37.2206 36.6733 37.2265 36.6712 37.232 36.6695C37.2374 36.6679 37.2416 36.6669 37.244 36.6665C37.2493 36.6654 37.2445 36.667 37.2266 36.667V40.667C38.3227 40.667 39.3095 40.2474 40.0717 39.4635L37.2037 36.6752ZM37.2188 36.6416C37.2188 36.6628 37.2169 36.6722 37.2169 36.6723C37.2169 36.6725 37.2171 36.6711 37.2179 36.6686C37.2186 36.666 37.2197 36.663 37.221 36.6597C37.224 36.6524 37.2265 36.6485 37.2262 36.649C37.2256 36.6498 37.2196 36.6588 37.2037 36.6752L40.0717 39.4635C40.8203 38.6935 41.2188 37.7181 41.2188 36.6416H37.2188ZM37.2037 36.5914C37.218 36.6061 37.223 36.6137 37.223 36.6138C37.2231 36.614 37.2225 36.613 37.2214 36.6109C37.2203 36.6088 37.2191 36.6063 37.218 36.6036C37.2156 36.5975 37.2153 36.5948 37.2159 36.598C37.2165 36.6015 37.2188 36.6152 37.2188 36.6416H41.2188C41.2188 35.5656 40.8283 34.5814 40.0717 33.8031L37.2037 36.5914ZM37.2266 36.5996C37.2445 36.5996 37.2493 36.6012 37.244 36.6001C37.2416 36.5997 37.2374 36.5987 37.232 36.5971C37.2265 36.5954 37.2206 36.5933 37.2144 36.5907C37.2082 36.588 37.2026 36.5853 37.1979 36.5827C37.1931 36.58 37.1899 36.5779 37.1882 36.5767C37.1846 36.5742 37.1901 36.5774 37.2037 36.5914L40.0717 33.8031C39.3095 33.0192 38.3227 32.5996 37.2266 32.5996V36.5996ZM37.2494 36.5914C37.263 36.5774 37.2685 36.5742 37.2649 36.5767C37.2632 36.5779 37.26 36.58 37.2552 36.5827C37.2505 36.5853 37.2449 36.588 37.2387 36.5907C37.2326 36.5933 37.2266 36.5954 37.2211 36.5971C37.2157 36.5987 37.2116 36.5997 37.2091 36.6001C37.2038 36.6012 37.2087 36.5996 37.2266 36.5996V32.5996C36.1304 32.5996 35.1436 33.0192 34.3814 33.8031L37.2494 36.5914ZM37.2344 36.6416C37.2344 36.6152 37.2366 36.6015 37.2373 36.598C37.2378 36.5948 37.2376 36.5975 37.2351 36.6036C37.234 36.6063 37.2329 36.6088 37.2318 36.6109C37.2307 36.613 37.23 36.614 37.2301 36.6138C37.2302 36.6137 37.2352 36.6061 37.2494 36.5914L34.3814 33.8031C33.6248 34.5814 33.2344 35.5656 33.2344 36.6416H37.2344ZM37.5664 60.6641V42.5684H33.5664V60.6641H37.5664ZM35.7324 58.6641H35.5664V62.6641H35.7324V58.6641ZM38.0305 57.3624L34.8762 58.8566L36.5886 62.4715L39.7429 60.9774L38.0305 57.3624ZM36.8867 41.0742V59.1699H40.8867V41.0742H36.8867ZM38.7207 43.0742H38.8867V39.0742H38.7207V43.0742ZM36.4226 44.3758L39.5769 42.8817L37.8645 39.2667L34.7102 40.7609L36.4226 44.3758ZM48.8887 60.6641V44.7598H44.8887V60.6641H48.8887ZM47.0547 58.6641H46.8887V62.6641H47.0547V58.6641ZM49.3528 57.3624L46.1985 58.8566L47.9109 62.4715L51.0652 60.9774L49.3528 57.3624ZM48.209 44.7598V59.1699H52.209V44.7598H48.209ZM53.1309 42.7598H50.209V46.7598H53.1309V42.7598ZM52.6662 41.0522L51.3215 43.9077L54.9403 45.6119L56.285 42.7564L52.6662 41.0522ZM52.4756 41.7383V41.9043H56.4756V41.7383H52.4756ZM50.209 43.7383H54.4756V39.7383H50.209V43.7383ZM48.209 34.2676V41.7383H52.209V34.2676H48.209ZM50.043 36.2676H50.209V32.2676H50.043V36.2676ZM47.7448 37.5692L50.8991 36.0751L49.1868 32.4601L46.0325 33.9542L47.7448 37.5692ZM48.8887 41.7383V35.7617H44.8887V41.7383H48.8887ZM43.9668 43.7383H46.8887V39.7383H43.9668V43.7383ZM44.4315 45.4459L45.7762 42.5904L42.1574 40.8862L40.8127 43.7416L44.4315 45.4459ZM44.6221 44.7598V44.5938H40.6221V44.7598H44.6221ZM46.8887 42.7598H42.6221V46.7598H46.8887V42.7598Z" fill="black" mask="url(#path-1-outside-1_11_2)"/>
</svg>
